<?xml version="1.0" encoding="UTF-8" standalone="no" ?>
<!DOCTYPE svg PUBLIC "-//W3C//DTD SVG 1.1//EN" "http://www.w3.org/Graphics/SVG/1.1/DTD/svg11.dtd">
<svg xmlns="http://www.w3.org/2000/svg" xmlns:xlink="http://www.w3.org/1999/xlink" version="1.1" width="1080" height="1080" viewBox="0 0 1080 1080" xml:space="preserve">
<desc>Created with Fabric.js 5.2.4</desc>
<defs>
</defs>
<g transform="matrix(1 0 0 1 540 540)" id="2cfd2ed1-6b14-42ef-aa67-148794fe1c83"  >
<rect style="stroke: none; stroke-width: 5; stroke-dasharray: none; stroke-linecap: butt; stroke-dashoffset: 0; stroke-linejoin: miter; stroke-miterlimit: 4; fill: rgb(255,255,255); fill-rule: nonzero; opacity: 1; visibility: hidden;" vector-effect="non-scaling-stroke"  x="-540" y="-540" rx="0" ry="0" width="1080" height="1080" />
</g>
<g transform="matrix(1 0 0 1 540 540)" id="dfdf499f-7873-4375-9fd1-f265d12485e3"  >
</g>
<g transform="matrix(51.43 0 0 51.43 540 540)"  >
<g style=""   >
		<g transform="matrix(1 0 0 1 -3.23 -3.23)"  >
<path style="stroke: rgb(41,0,61); stroke-width: 5; stroke-dasharray: none; stroke-linecap: round; stroke-dashoffset: 0; stroke-linejoin: round; stroke-miterlimit: 4; fill: none; fill-rule: nonzero; opacity: 1;" vector-effect="non-scaling-stroke"  transform=" translate(-7.27, -7.27)" d="M 7.273 10.546 C 9.080627986196188 10.546 10.546 9.080627986196186 10.546 7.273 C 10.546 5.465372013803812 9.080627986196188 3.999999999999999 7.273 3.999999999999999 C 5.465372013803813 3.999999999999999 3.9999999999999996 5.465372013803812 3.9999999999999996 7.273 C 3.9999999999999996 9.080627986196188 5.465372013803813 10.546 7.273 10.546 z" stroke-linecap="round" />
</g>
		<g transform="matrix(1 0 0 1 6.23 -3.23)"  >
<path style="stroke: rgb(41,0,61); stroke-width: 5; stroke-dasharray: none; stroke-linecap: round; stroke-dashoffset: 0; stroke-linejoin: round; stroke-miterlimit: 4; fill: none; fill-rule: nonzero; opacity: 1;" vector-effect="non-scaling-stroke"  transform=" translate(-16.73, -7.27)" d="M 16.728 10.546 C 18.53562798619619 10.546 20.001 9.080627986196186 20.001 7.273 C 20.001 5.465372013803812 18.53562798619619 3.999999999999999 16.728 3.999999999999999 C 14.920372013803814 3.999999999999999 13.455000000000002 5.465372013803812 13.455000000000002 7.273 C 13.455000000000002 9.080627986196188 14.920372013803814 10.546 16.728 10.546 z" stroke-linecap="round" />
</g>
		<g transform="matrix(1 0 0 1 -3.17 6.23)"  >
<path style="stroke: rgb(41,0,61); stroke-width: 5; stroke-dasharray: none; stroke-linecap: round; stroke-dashoffset: 0; stroke-linejoin: round; stroke-miterlimit: 4; fill: none; fill-rule: nonzero; opacity: 1;" vector-effect="non-scaling-stroke"  transform=" translate(-7.33, -16.73)" d="M 7.273 20 C 8.455786559635547 20.02067679116471 9.557683152871228 19.40150351789733 10.155125896369068 18.380487482964902 C 10.752568639866908 17.359471448032473 10.752568639866906 16.095528551967526 10.155125896369068 15.074512517035098 C 9.557683152871228 14.05349648210267 8.455786559635547 13.434323208835288 7.272999999999999 13.455 C 5.487946756272062 13.48620526931742 4.057207953992448 14.94217402086431 4.057207953992448 16.7275 C 4.057207953992448 18.51282597913569 5.487946756272062 19.968794730682582 7.273 20 z" stroke-linecap="round" />
</g>
		<g transform="matrix(1 0 0 1 6.23 6.23)"  >
<path style="stroke: rgb(41,0,61); stroke-width: 5; stroke-dasharray: none; stroke-linecap: round; stroke-dashoffset: 0; stroke-linejoin: round; stroke-miterlimit: 4; fill: none; fill-rule: nonzero; opacity: 1;" vector-effect="non-scaling-stroke"  transform=" translate(-16.73, -16.73)" d="M 16.727 14.182 L 16.727 19.272 M 19.273 16.727 L 14.181999999999999 16.727" stroke-linecap="round" />
</g>
</g>
</g>
</svg>