<?xml version="1.0" encoding="UTF-8" standalone="no" ?>
<!DOCTYPE svg PUBLIC "-//W3C//DTD SVG 1.1//EN" "http://www.w3.org/Graphics/SVG/1.1/DTD/svg11.dtd">
<svg xmlns="http://www.w3.org/2000/svg" xmlns:xlink="http://www.w3.org/1999/xlink" version="1.1" width="1080" height="1080" viewBox="0 0 1080 1080" xml:space="preserve">
<desc>Created with Fabric.js 5.2.4</desc>
<defs>
</defs>
<g transform="matrix(1 0 0 1 540 540)" id="ce6dfd83-428e-4c2c-bbce-dcbadab4e065"  >
<rect style="stroke: none; stroke-width: 1; stroke-dasharray: none; stroke-linecap: butt; stroke-dashoffset: 0; stroke-linejoin: miter; stroke-miterlimit: 4; fill: rgb(255,255,255); fill-rule: nonzero; opacity: 1; visibility: hidden;" vector-effect="non-scaling-stroke"  x="-540" y="-540" rx="0" ry="0" width="1080" height="1080" />
</g>
<g transform="matrix(1 0 0 1 540 540)" id="01297a7d-4536-4ab0-b256-38601d6a0839"  >
</g>
<g transform="matrix(54 0 0 54 540 540)"  >
<g style=""   >
		<g transform="matrix(1 0 0 1 2.5 -1.35)"  >
<path style="stroke: none; stroke-width: 1; stroke-dasharray: none; stroke-linecap: butt; stroke-dashoffset: 0; stroke-linejoin: miter; stroke-miterlimit: 4; fill: rgb(41,0,61); fill-rule: evenodd; opacity: 1;" vector-effect="non-scaling-stroke"  transform=" translate(-12.5, -8.65)" d="M 19.707 4.707 L 10.707 13.707 C 10.316500148514187 14.097381938332862 9.683499851485815 14.097381938332864 9.293000000000001 13.707 L 5.293000000000001 9.707 L 6.707000000000001 8.293000000000001 L 10 11.586 L 18.293 3.293000000000001 L 19.707 4.707000000000001 z" stroke-linecap="round" />
</g>
		<g transform="matrix(1 0 0 1 -5 0)"  >
<path style="stroke: none; stroke-width: 1; stroke-dasharray: none; stroke-linecap: butt; stroke-dashoffset: 0; stroke-linejoin: miter; stroke-miterlimit: 4; fill: rgb(41,0,61); fill-rule: evenodd; opacity: 1;" vector-effect="non-scaling-stroke"  transform=" translate(-5, -10)" d="M 10 0 L 1 0 C 0.44771525016920655 0 0 0.44771525016920655 0 1 L 0 19 C 0 19.552284749830793 0.44771525016920655 20 1 20 L 10 20 L 10 18 L 2 18 L 2 2 L 10 2 L 10 0 z" stroke-linecap="round" />
</g>
</g>
</g>
</svg>