<?xml version="1.0" encoding="UTF-8"?>
<svg version="1.1" xmlns="http://www.w3.org/2000/svg" width="512" height="512">
<path d="M0 0 C10.56 0 21.12 0 32 0 C32.01458252 4.90294922 32.02916504 9.80589844 32.04418945 14.85742188 C32.09473378 31.1342249 32.161217 47.4109348 32.23571491 63.68764496 C32.28045936 73.5472862 32.31992164 83.40689304 32.34643555 93.26660156 C32.36959026 101.87193594 32.4031785 110.47715945 32.44870156 119.08240557 C32.47240126 123.62827155 32.49128069 128.17402935 32.49761391 132.71995544 C31.27481592 184.23768853 31.27481592 184.23768853 52.625 229.3125 C56.9157134 233.04737099 61.35953681 235.17052012 67 236 C69.81735085 230.46591797 71.67902652 224.96953181 73.125 218.9375 C73.28323242 218.2969165 73.44146484 217.65633301 73.60449219 216.99633789 C76.83219772 202.91995544 77.29950556 188.84665675 77.30297852 174.48266602 C77.31065948 172.58047126 77.31920952 170.67827985 77.32855225 168.77609253 C77.3466782 164.71608183 77.35881284 160.65611575 77.36609077 156.59607124 C77.37766115 150.18012215 77.40314674 143.7642723 77.43040466 137.34837341 C77.47186684 127.21406403 77.50437835 117.07974977 77.53287882 106.94539636 C77.5841074 88.75246799 77.64592203 70.55958026 77.71821922 52.36672348 C77.74316815 45.98276809 77.76258505 39.59882626 77.77760136 33.21484005 C77.78776726 29.26184488 77.80191056 25.30887102 77.81707764 21.35589218 C77.82325797 19.51637585 77.82770328 17.67685279 77.83033562 15.83732796 C77.83411839 13.33805032 77.8439057 10.8388679 77.85523987 8.33961487 C77.85485374 7.6024886 77.8544676 6.86536234 77.85406977 6.10589892 C77.88593307 1.11406693 77.88593307 1.11406693 79 0 C81.29151417 -0.08790975 83.58572524 -0.10694038 85.87890625 -0.09765625 C86.90889992 -0.09553383 86.90889992 -0.09553383 87.95970154 -0.09336853 C90.16067801 -0.08775479 92.36155409 -0.07520007 94.5625 -0.0625 C96.05143083 -0.05748676 97.54036324 -0.05292355 99.02929688 -0.04882812 C102.68623075 -0.03778093 106.34310558 -0.02050713 110 0 C110.04688147 21.20244458 110.08206754 42.40488052 110.10362434 63.60736656 C110.11390302 73.45375687 110.12789756 83.30011484 110.15087891 93.14648438 C110.1709178 101.73631299 110.18374115 110.32611815 110.18817699 118.91596949 C110.19076673 123.45718646 110.19678123 127.99833639 110.21146011 132.53953171 C110.22521067 136.82898686 110.22918805 141.11834846 110.22621536 145.40782356 C110.22675783 146.96767374 110.23062983 148.52752761 110.23841095 150.08735847 C110.37092257 178.06463697 106.63855536 209.69710838 86.91796875 231.24609375 C82.69372343 235.10899833 78.05226302 237.56460276 72.46484375 238.75 C68.02993044 240.34996873 67.24089905 242.01607225 65.0625 246.125 C61.03309211 253.27500105 56.74718589 258.7794454 49.625 263 C41.777656 265.16478455 35.52761517 264.68369165 28.37890625 260.65625 C11.74414997 249.07474481 6.69566585 225.46242093 3.25 206.6875 C-0.73265261 180.91183402 -0.28879725 154.44367724 -0.20278788 128.43709373 C-0.19001234 123.898214 -0.18908947 119.35932951 -0.18673706 114.82043457 C-0.18059905 106.28268513 -0.16429604 97.74498887 -0.14403808 89.20726252 C-0.12143512 79.46306162 -0.11062528 69.71885775 -0.10064721 59.97463703 C-0.07991989 39.98305537 -0.04334391 19.9915463 0 0 Z " fill="#6425D9" transform="translate(140,124)"/>
<path d="M0 0 C14.27987039 8.14381234 19.33932446 25.13619081 23.46875 40.0703125 C30.66250007 67.26645193 30.03747841 95.26740242 29.95278788 123.17490387 C29.94011159 128.0715121 29.93909693 132.96812398 29.93673706 137.86474609 C29.93057114 147.09691273 29.914228 156.32903084 29.89403808 165.5611763 C29.87152499 176.08873249 29.86064728 186.61629124 29.85064721 197.14386559 C29.82985623 218.76260467 29.79436494 240.38129753 29.75 262 C19.52 262 9.29 262 -1.25 262 C-1.26981934 257.51180664 -1.28963867 253.02361328 -1.31005859 248.39941406 C-1.37736437 233.46775252 -1.45490153 218.53615653 -1.53752708 203.6045723 C-1.58731356 194.5633838 -1.6337553 185.52220287 -1.671875 176.48095703 C-1.70517028 168.58609864 -1.74519712 160.69130558 -1.79279006 152.79651999 C-1.81768919 148.6294898 -1.83957036 144.46250084 -1.85334396 140.29541779 C0.07770788 83.96522031 0.07770788 83.96522031 -21.09375 33.87109375 C-25.62339078 29.56613753 -30.21182685 27.46761153 -36.25 26 C-53.59394708 45.25984821 -47.7263478 91.29473823 -47.75611091 115.39698267 C-47.76562478 120.56856337 -47.79183621 125.74006193 -47.81611633 130.91159058 C-47.85943289 140.66072382 -47.88819208 150.40984081 -47.91143972 160.15904033 C-47.9386806 171.27677144 -47.98257869 182.39441847 -48.02772844 193.51208901 C-48.12007437 216.34134858 -48.19139092 239.170631 -48.25 262 C-58.48 262 -68.71 262 -79.25 262 C-80.61797149 259.26405702 -80.37909251 257.09370659 -80.38371277 254.02986145 C-80.38797775 252.75615692 -80.39224274 251.48245239 -80.39663696 250.17015076 C-80.39628738 248.74990842 -80.39582581 247.3296661 -80.39526367 245.90942383 C-80.39825494 244.4193717 -80.4016574 242.92932035 -80.40544128 241.43927002 C-80.41430363 237.37805218 -80.41662075 233.3168554 -80.41725707 229.25562882 C-80.41796803 226.70962382 -80.42010355 224.16362415 -80.42275429 221.61762047 C-80.43202552 212.70821164 -80.43608826 203.79881779 -80.43530273 194.8894043 C-80.43470625 186.63507551 -80.44516832 178.38081298 -80.4610464 170.1265009 C-80.47423504 163.01193179 -80.47948172 155.89738397 -80.47884732 148.78280276 C-80.47859499 144.54718784 -80.48129516 140.31163139 -80.49202538 136.07602882 C-80.66791224 61.3043848 -80.66791224 61.3043848 -59.9375 33.6875 C-54.96404778 28.71404778 -49.18358191 24.61246091 -42.25 23 C-40.93 23 -39.61 23 -38.25 23 C-37.99605469 22.1234375 -37.74210937 21.246875 -37.48046875 20.34375 C-34.31229246 11.73435664 -27.29881066 2.85583192 -18.8671875 -1.125 C-12.48449764 -3.25891422 -6.09901611 -2.76550807 0 0 Z " fill="#6425D9" transform="translate(102.25,120)"/>
<path d="M0 0 C2.64 0 5.28 0 8 0 C12.95105689 23.11938699 17.88349921 46.24271049 22.80212402 69.36901855 C23.60670009 73.15176254 24.41182894 76.93438827 25.21740723 80.71691895 C27.43045117 91.10914075 29.63881748 101.50232587 31.83552265 111.89801502 C32.79415462 116.43427903 33.75507858 120.9700284 34.72164917 125.50460815 C35.63298957 129.78068053 36.53789499 134.05806328 37.4377861 138.3365593 C37.77099394 139.91526144 38.10654224 141.49347158 38.44453812 143.07115555 C38.9049381 145.22203149 39.3569829 147.37449556 39.80688477 149.52758789 C40.06284927 150.7358876 40.31881378 151.94418732 40.58253479 153.18910217 C41 156 41 156 40 158 C33.20196881 158.76637512 28.61990166 158.12159243 23.09765625 153.953125 C9.85436132 141.62231035 5.25343348 121.16899517 4.08203125 103.6796875 C3.9220081 98.45226475 3.92518277 93.22889313 4 88 C7.38891322 88.68886787 10.18011613 89.98716486 13.25 91.5625 C14.14203125 92.01753906 15.0340625 92.47257812 15.953125 92.94140625 C16.96632813 93.46541016 16.96632813 93.46541016 18 94 C16.44209679 91.93388759 14.87890323 89.87215361 13.3125 87.8125 C12.87744141 87.23435547 12.44238281 86.65621094 11.99414062 86.06054688 C11.55908203 85.49013672 11.12402344 84.91972656 10.67578125 84.33203125 C10.28302002 83.81358643 9.89025879 83.2951416 9.4855957 82.76098633 C7.47190006 80.37400413 5.20824072 78.20824072 3 76 C-1.62 81.61 -6.24 87.22 -11 93 C-7.69897336 92.17474334 -6.15176512 91.6116439 -3.4375 89.875 C-2.303125 89.25625 -1.16875 88.6375 0 88 C0.99 88.33 1.98 88.66 3 89 C3.87746464 111.13160816 0.30848246 136.0228204 -15 153 C-19.62393074 156.42170875 -22.93677853 158.14584379 -28.6875 158.0625 C-29.49574219 158.05347656 -30.30398438 158.04445313 -31.13671875 158.03515625 C-32.05904297 158.01775391 -32.05904297 158.01775391 -33 158 C-34.37830956 155.24338088 -33.70546813 153.82083706 -33.052948 150.82037354 C-32.69983299 149.17269485 -32.69983299 149.17269485 -32.33958435 147.49172974 C-31.93921715 145.6748616 -31.93921715 145.6748616 -31.53076172 143.82128906 C-31.11874763 141.91339096 -31.11874763 141.91339096 -30.69841003 139.96694946 C-29.94181932 136.46433964 -29.17672565 132.96363513 -28.41010809 129.4632082 C-27.60555846 125.78296473 -26.80860015 122.10107799 -26.01077271 118.41937256 C-24.66498825 112.21414628 -23.31422165 106.01002227 -21.95996094 99.80664062 C-20.06695815 91.13543893 -18.18278216 82.462338 -16.30048347 73.78880739 C-14.82447486 66.98903154 -13.34604112 60.18978258 -11.8671875 53.390625 C-11.71164445 52.67540837 -11.55610141 51.96019175 -11.39584494 51.22330189 C-7.67782642 34.13032394 -3.9178128 17.04849659 0 0 Z " fill="#6426D9" transform="translate(449,229)"/>
<path d="M0 0 C5.61 0 11.22 0 17 0 C19.14000821 9.02429648 21.02095781 18.05527442 22.69921875 27.17578125 C22.9391304 28.46695358 23.17904205 29.75812592 23.42622375 31.08842468 C24.05503149 34.4727581 24.68048869 37.85770177 25.30517578 41.24279785 C25.94681361 44.71628744 26.59172092 48.18916985 27.23632812 51.66210938 C28.49403037 58.44082572 29.74818312 65.22019441 31 72 C34.44810519 55.31420529 37.40356908 38.55565233 40.29907227 21.76635742 C40.88741539 18.36056992 41.48053251 14.95564075 42.07421875 11.55078125 C42.25337326 10.50312088 42.43252777 9.45546051 42.61711121 8.37605286 C42.78431168 7.41962387 42.95151215 6.46319489 43.1237793 5.4777832 C43.2693779 4.63431839 43.4149765 3.79085358 43.56498718 2.92182922 C44 1 44 1 45 0 C47.69654854 -0.07319621 50.36691458 -0.09242537 53.0625 -0.0625 C53.82111328 -0.05798828 54.57972656 -0.05347656 55.36132812 -0.04882812 C57.24091871 -0.0370068 59.12046899 -0.01907078 61 0 C60.46088201 9.02404969 59.34803822 17.81182877 57.79101562 26.71313477 C57.56538363 28.02865529 57.34027645 29.34426591 57.11564636 30.65995789 C56.51155152 34.18921557 55.90012618 37.71716562 55.2871685 41.24489331 C54.64419675 44.95249946 54.00787477 48.66124713 53.37072754 52.36985779 C52.30207059 58.5845836 51.22900926 64.79853512 50.15283203 71.01196289 C48.77208361 78.98396253 47.39829588 86.95714493 46.02680206 94.93074131 C44.84458521 101.80384775 43.6596607 108.67648691 42.47405815 115.54901004 C42.09407323 117.75203228 41.71437111 119.95510316 41.33467102 122.15817451 C40.6281042 126.25626841 39.91873855 130.35387294 39.20898438 134.45141602 C38.99908371 135.66961029 38.78918304 136.88780457 38.57292175 138.14291382 C38.37946671 139.25712204 38.18601166 140.37133026 37.98669434 141.51930237 C37.81930504 142.48689263 37.65191574 143.4544829 37.47945404 144.45139408 C37.06571237 146.6506966 36.542766 148.82893602 36 151 C32.7 151 29.4 151 26 151 C22.69835514 135.13447397 19.88759062 119.19555485 17.15198421 103.22399211 C16.54777444 99.69913231 15.94080549 96.17474738 15.33428955 92.65028381 C14.32052647 86.75669017 13.30899975 80.86271607 12.29882812 74.96850586 C11.13177471 68.15910353 9.96090237 61.35036581 8.78810763 54.54195017 C7.65386675 47.95674514 6.52243902 41.3710597 5.39225006 34.78515816 C4.91313675 31.99359484 4.43300792 29.20220902 3.95204926 26.41096306 C3.28384045 22.53219775 2.61973034 18.65273702 1.95605469 14.77319336 C1.75662262 13.61850555 1.55719055 12.46381775 1.35171509 11.2741394 C1.17238434 10.22190689 0.99305359 9.16967438 0.80828857 8.08555603 C0.65124828 7.17038177 0.49420799 6.2552075 0.33240891 5.31230068 C0 3 0 3 0 0 Z " fill="#6425D9" transform="translate(270,236)"/>
<path d="M0 0 C1.39470283 1.20676415 2.7723279 2.43380391 4.125 3.6875 C4.99125 4.450625 5.8575 5.21375 6.75 6 C10.78402014 13.88467573 5.4331798 25.63571001 3.125 33.6875 C2.465 33.6875 1.805 33.6875 1.125 33.6875 C0.403125 32.78 -0.31875 31.8725 -1.0625 30.9375 C-3.96245576 27.34667242 -6.6294869 25.54956715 -10.875 23.6875 C-14.10364106 23.50238917 -14.10364106 23.50238917 -16.875 24.6875 C-20.95215267 29.06994671 -20.98462798 33.9242005 -20.875 39.6875 C-19.60249484 48.13476833 -14.45137757 53.35445192 -8.40625 58.98828125 C0.1600645 67.07725594 5.46044962 75.92755968 7.125 87.6875 C7.23457031 88.368125 7.34414063 89.04875 7.45703125 89.75 C9.61744989 105.4202365 8.99792658 125.95319464 -0.734375 139.22265625 C-4.69475745 143.92002716 -7.76009015 146.9622376 -13.98046875 148.05859375 C-21.5915939 148.30135009 -27.39587976 145.56837419 -33.21484375 140.75 C-36.82628733 137.30182241 -39.38681267 134.52957689 -40.875 129.6875 C-40.55126953 127.1003418 -40.55126953 127.1003418 -39.7578125 124.38671875 C-39.48066406 123.41025391 -39.20351563 122.43378906 -38.91796875 121.42773438 C-38.61503906 120.42033203 -38.31210937 119.41292969 -38 118.375 C-37.70480469 117.34826172 -37.40960938 116.32152344 -37.10546875 115.26367188 C-36.37593898 112.73385091 -35.63210644 110.20917849 -34.875 107.6875 C-30.82271699 109.038261 -29.32931203 111.52569702 -26.69140625 114.77734375 C-23.77118079 117.84829052 -21.5632519 118.60146851 -17.375 119.125 C-13.74798405 119.02908374 -13.74798405 119.02908374 -11.5 116.375 C-8.00308128 110.59163443 -7.9564122 103.92602323 -9.37109375 97.3984375 C-11.57995446 90.93408807 -15.59539148 86.71472835 -20.75 82.4375 C-29.8387861 74.61771422 -34.83148296 64.40451451 -36.875 52.6875 C-38.02058059 35.20989045 -38.6647889 15.00367224 -26.875 0.6875 C-18.67762683 -7.11088598 -8.77834399 -6.64894372 0 0 Z " fill="#6426D9" transform="translate(408.875,240.3125)"/>
<path d="M0 0 C4.95 0 9.9 0 15 0 C15 49.5 15 99 15 150 C10.05 150 5.1 150 0 150 C0 100.5 0 51 0 0 Z " fill="#6425D9" transform="translate(343,236)"/>
</svg>
