<svg width="30" height="73" viewBox="0 0 30 73" fill="none" xmlns="http://www.w3.org/2000/svg">
<path d="M0 0H18C24.6274 0 30 5.37258 30 12V61C30 67.6274 24.6274 73 18 73H0V0Z" fill="#222222"/>
<path d="M9 17.9L9 23.0828C9 25.1 10.1793 26.5121 11.9017 26.5121C13.2983 26.5121 14.3224 25.581 14.5241 24.1379C14.7569 25.3172 15.7345 26.1552 16.9914 26.1552C18.6362 26.1552 19.8621 24.7431 19.8621 22.7259L19.8621 17.9L9 17.9ZM10.5517 19.8707L13.7328 19.8707L13.7328 22.85C13.7328 23.8431 13.081 24.5259 12.1345 24.5259C11.2034 24.5259 10.5517 23.8431 10.5517 22.85L10.5517 19.8707ZM15.2224 19.8707L18.3414 19.8707L18.3414 22.5086C18.3414 23.5172 17.6897 24.2155 16.7897 24.2155C15.8741 24.2155 15.2224 23.5172 15.2224 22.5086L15.2224 19.8707ZM9 28.3632L9 35.8891L10.5983 35.8891L10.5983 30.3805L13.7638 30.3805L13.7638 35.2994L15.2534 35.2994L15.2534 30.3805L18.2793 30.3805L18.2793 35.8115L19.8621 35.8115L19.8621 28.3632L9 28.3632ZM8.72069 41.7724C8.72069 44.2862 10.0862 46.0242 12.0879 46.0242C13.8259 46.0242 14.9431 44.8293 15.331 42.5328L15.5793 41.1673C15.7655 40.2517 16.2466 39.6776 17.0224 39.6776C17.9534 39.6776 18.5741 40.4845 18.5741 41.5707C18.5741 42.7811 17.7362 43.6655 16.4948 43.7276L16.619 45.7138C18.6828 45.6517 20.1414 43.9138 20.1414 41.5862C20.1414 39.2897 18.869 37.6604 16.8672 37.6604C15.1914 37.6604 14.0276 38.8707 13.6552 40.9811L13.4224 42.3466C13.1897 43.4793 12.7552 44.0224 11.9483 44.0224C10.9707 44.0224 10.3034 43.1069 10.3034 41.8035C10.3034 40.3914 11.2034 39.3673 12.5379 39.3207L12.4138 37.3655C10.2414 37.381 8.72069 39.2276 8.72069 41.7724ZM9 50.4195L9 52.4523L18.1552 52.4523L18.1552 55.773L19.8621 55.773L19.8621 47.0988L18.1552 47.0988L18.1552 50.4195L9 50.4195Z" fill="#81EBAB"/>
</svg>
