<svg xmlns="http://www.w3.org/2000/svg" width="293" height="60" version="1">
  <g fill-rule="evenodd">
    <path d="M54.474 58.069h9.81l7.692-28.662h-9.81L54.475 58.07m50.386-.001h9.808l7.692-28.662h-9.807L104.86 58.07m50.388-.001h9.808l7.692-28.662h-9.807l-7.693 28.662M95.731 39.228h9.816c1.304-6.444-2.867-9.761-12.49-9.761-11.13 0-18.695 5.44-21.232 14.893-2.3 8.565 2.253 13.78 12.726 13.78 10.588 0 16.841-3.286 19.515-10.655H94.21c-1.372 3.24-3.953 4.939-7.431 4.939-4.753 0-6.613-3.01-5.151-8.45 1.521-5.672 5.103-8.797 9.895-8.797 3.015 0 4.43 1.351 4.207 4.05m50.388.001h9.816c1.304-6.444-2.867-9.761-12.49-9.761-11.13 0-18.695 5.44-21.233 14.893-2.298 8.565 2.254 13.78 12.725 13.78 10.59 0 16.843-3.286 19.517-10.655h-9.855c-1.372 3.24-3.953 4.939-7.431 4.939-4.753 0-6.612-3.01-5.151-8.45 1.521-5.672 5.103-8.797 9.895-8.797 3.015 0 4.43 1.351 4.207 4.05" fill="#005b75"/>
    <path d="M16.58 13.516C29.72.514 45.607-2.846 51.944 6.039c6.336 8.883.788 26.734-12.352 39.736-13.14 13.003-29.025 16.36-35.363 7.477-6.337-8.884-.788-26.735 12.351-39.736" fill="#f99d27"/>
    <path d="M25.277 6.582c-1.417 1.06-2.923 2.3-4.34 3.714C9.422 21.616 4.64 37.181 10.307 44.962c5.847 7.784 20.02 4.954 31.71-6.543 6.29-6.102 10.542-13.265 12.313-19.898.531-4.864-.176-9.198-2.39-12.47-5.05-6.898-15.856-6.366-26.663.53" fill="#b02a30"/>
    <path d="M41.052 6.174c1.532 1.53.598 4.876-2.011 7.505-2.634 2.605-6.055 3.537-7.54 2.031-1.58-1.505-.646-4.898 1.987-7.552 2.656-2.652 6.08-3.465 7.564-1.984zM31.789 52.19c-6.152 4.613-12.508 6.897-18.707 5.94 2.599.135 4.702-2.747 6.426-6.619 1.748-3.967 2.801-7.647 3.638-11.09 1.222-5.448 1.317-9.343.695-10.18-1.053-1.387-3.446-1.027-6.152.526-1.292.716-3.016.239-.982-2.223 2.059-2.485 10.247-8.46 13.19-9.392 3.231-.932 6.917.335 5.673 3.871-.885 2.582-12.209 32.246-3.781 29.167" fill="#fff"/>
    <path d="M180.072 58.12h14.714c4.187 0 7.302-.318 10.29-2.389 1.998-1.352 3.47-3.423 4.08-5.692 1.056-3.942-.75-6.568-5.244-7.206 4.24-.796 6.912-3.025 7.82-6.409.705-2.626.13-4.497-1.76-5.772-1.556-1.034-4.105-1.194-7.575-1.194h-14.632l-7.693 28.661zm12.698-24.283h6.1c4.585 0 6.71.557 5.94 3.423-.77 2.867-3.234 3.583-7.98 3.583h-5.941l1.881-7.006zm-5.288 19.704l2.243-8.36h6.42c4.944 0 7.14.877 6.233 4.261-.834 3.104-3.254 4.1-7.72 4.1h-7.176m37.862 4.578h5.9c.164-1.353.48-2.826.918-4.459l2.148-8.001c1.42-5.295-1.203-8.002-7.861-8.002-6.42 0-10.606 2.23-11.89 5.972h5.663c.74-1.871 2.372-2.748 5.082-2.748 3.03 0 4.103 1.355 3.323 4.26l-.096.359h-3.11c-8.773 0-13.505 1.592-14.862 6.647-1.047 3.901 1.417 6.456 6.64 6.456 3.39 0 6.362-1.121 8.723-3.23l-.578 2.745zm2.278-9.235l-.095.358c-.995 3.702-3.985 5.931-7.653 5.931-2.671 0-3.789-1.035-3.276-2.945.705-2.628 3.01-3.344 7.276-3.344h3.748m8.702 9.235h5.941l2.746-10.231c.993-3.702 4.4-6.29 7.948-6.29 3.47 0 4.68 2.03 3.59 6.09l-2.8 10.43h5.82l3.291-12.26c1.39-5.174-1.239-8.16-7.02-8.16-3.747 0-6.8 1.273-9.362 3.98l.712-3.543h-5.862c-.603 3.145-1.008 5.095-1.211 5.852l-3.793 14.131m28.486.001h5.781l2.895-10.788 7.79 10.787h7.936l-8.777-11.424 11.907-8.559h-7.457l-11.09 8.042 4.487-16.72h-5.78l-7.693 28.661" fill="#005b75"/>
  </g>
</svg>
