<svg xmlns="http://www.w3.org/2000/svg" viewBox="0 0 226.8 50">
  <path d="M55.4 36.4c0 .7-.3 1.3-.7 1.8L43.2 49.7c-.4.4-1.1.4-1.5 0-.2-.2-.3-.5-.3-.7V23.2L55.3 9.5h.2l-.1 26.9z" fill="#e34b5f"/>
  <path d="M46.2.3c-.4-.4-1.1-.4-1.5 0l-17 17.1h-.2v19.3l.2.5 13.7-13.7 14-14L46.2.3z" fill="#e7ce9c"/>
  <path d="M0 36.4c0 .7.3 1.3.7 1.8l11.5 11.5c.4.4 1.1.4 1.5 0 .2-.2.3-.5.3-.7V23.2L.2 9.5H0v26.9z" fill="#1e7889"/>
  <path d="M10.6.3c-.4-.4-1.1-.4-1.5 0L0 9.5l14 14 13.7 13.7V17.4L10.6.3z" fill="#97baa6"/>
  <path d="M72.6 36.4V10.7h6.8v3.4c1.6-2.6 3.9-3.9 7-3.9s5.5 1.3 7.1 4.1c2.7-2.8 4.7-4.1 7.9-4.1 5.8 0 9 3.3 9 9.2v16.9H103V22.5c0-3.6-.8-5.2-3.6-5.2-2.9 0-4.4 1.8-4.4 5.2v13.9h-7.4V22.5c0-3.6-.8-5.2-3.6-5.2-2.9 0-4.4 1.8-4.4 5.2v13.9h-7zM119.6 14.1c5.3-5.3 13.8-5.4 19.2-.1 2.5 2.5 4 5.9 4 9.4 0 3.9-1.3 7.1-3.9 9.7-2.6 2.6-6.1 4.1-9.8 4-3.9 0-7.1-1.3-9.7-4.1-2.5-2.5-3.8-5.9-3.8-9.5.1-3.6 1.5-7 4-9.4zm9.7 15.8c3.4 0 6.1-2.8 6.1-6.3s-2.7-6.4-6.1-6.4c-3.3 0-6.1 2.8-6.1 6.4 0 3.5 2.8 6.3 6.1 6.3zM148 36.4V10.7h7.2l-.1 3.4c1.6-2.6 4-3.9 7.4-3.9 5.3 0 8.7 3.4 8.7 9.2v16.9h-7.6V22.5c0-3.6-.8-5.2-3.7-5.2-3 0-4.5 1.8-4.5 5.2v13.9H148zM203.6 14.1c5.3-5.3 13.8-5.4 19.2-.1 2.5 2.5 4 5.9 4 9.4 0 3.9-1.3 7.1-3.9 9.7-2.6 2.6-6.1 4.1-9.8 4-3.9 0-7.1-1.3-9.7-4.1-2.5-2.5-3.8-5.9-3.8-9.5.1-3.6 1.5-7 4-9.4zm9.6 15.8c3.4 0 6.1-2.8 6.1-6.3s-2.7-6.4-6.1-6.4c-3.3 0-6.1 2.8-6.1 6.4 0 3.5 2.8 6.3 6.1 6.3zM176.9 36.4V31l10.6-13.7h-10.6v-6.7H196v6.1l-9.3 13h9.5v6.7h-19.3z"/>
</svg>
