<svg width="222" height="50" fill="none" xmlns="http://www.w3.org/2000/svg"><path d="M70.45 2.883h14.784c2.18 0 4.177.37 5.988 1.146a13.429 13.429 0 014.583 3.105 14.84 14.84 0 012.957 4.546c.702 1.737 1.035 3.548 1.035 5.433 0 1.885-.333 3.733-1.035 5.47a13.625 13.625 0 01-7.54 7.615c-1.774.74-3.77 1.146-5.988 1.146h-8.02V43.54h-6.765V2.883zm14.747 22.473c1.183 0 2.255-.222 3.216-.665.96-.444 1.774-1.035 2.44-1.812.664-.739 1.182-1.626 1.552-2.624.37-.998.554-2.07.554-3.179a9.438 9.438 0 00-.555-3.178 8.955 8.955 0 00-1.552-2.625c-.665-.776-1.515-1.367-2.44-1.81a7.954 7.954 0 00-3.215-.666h-8.02v16.559h8.02zm29.421 18.85c-2.18 0-4.176-.37-5.95-1.146a13.64 13.64 0 01-4.547-3.104 13.723 13.723 0 01-2.92-4.547c-.702-1.737-1.035-3.585-1.035-5.47 0-1.885.333-3.696 1.035-5.433a13.724 13.724 0 012.92-4.547c1.294-1.33 2.809-2.402 4.547-3.104 1.774-.74 3.733-1.146 5.95-1.146 2.181 0 4.177.37 5.988 1.146a13.426 13.426 0 014.584 3.104 14.846 14.846 0 012.956 4.547c.703 1.737 1.035 3.548 1.035 5.433 0 1.885-.332 3.733-1.035 5.47a13.621 13.621 0 01-7.54 7.615c-1.811.813-3.807 1.182-5.988 1.182zm0-5.618c1.22 0 2.329-.222 3.327-.702 1.959-.887 3.474-2.55 4.214-4.583.406-1.035.591-2.144.591-3.327a9.298 9.298 0 00-.591-3.326c-.74-2.033-2.255-3.697-4.214-4.584-1.035-.48-2.181-.702-3.327-.702-1.219 0-2.328.222-3.289.702-.998.48-1.811 1.072-2.513 1.848a8.145 8.145 0 00-1.627 2.735 9.833 9.833 0 00-.554 3.327c0 1.146.185 2.255.554 3.327a8.145 8.145 0 001.627 2.735 7.776 7.776 0 002.513 1.848c.961.48 2.07.702 3.289.702zm38.145-12.234c-.185-1.479-.776-2.661-1.737-3.585-.961-.924-2.551-1.368-4.731-1.368-1.257 0-2.329.222-3.253.702-.887.444-1.663 1.11-2.292 1.885a7.629 7.629 0 00-1.367 2.736 11.782 11.782 0 00-.444 3.289c0 1.146.148 2.255.444 3.327.296 1.034.739 1.959 1.367 2.735a6.659 6.659 0 002.403 1.848c.998.48 2.144.702 3.548.702 1.885 0 3.253-.407 4.14-1.146.887-.776 1.552-1.848 1.959-3.178h6.431a13.19 13.19 0 01-1.293 3.917c-.629 1.22-1.516 2.292-2.551 3.18-1.072.923-2.365 1.626-3.881 2.106-1.515.518-3.252.74-5.285.74-2.255 0-4.214-.407-5.914-1.184a12.5 12.5 0 01-4.288-3.178 14.163 14.163 0 01-2.624-4.51 16.42 16.42 0 010-10.645 13.065 13.065 0 012.624-4.546 13.374 13.374 0 014.251-3.178c1.7-.814 3.659-1.183 5.877-1.183 2.255 0 4.14.295 5.729.924 1.589.628 2.92 1.441 3.955 2.402a10.493 10.493 0 012.365 3.364c.518 1.256.851 2.55.961 3.844h-6.394zm24.986 3.659l11.421 13.528h-8.02l-10.054-11.902v11.902h-6.431V2.883h6.431v25.54l10.054-11.975h8.02l-11.421 13.565zm15.081-13.528h6.431v27.056h-6.431V16.485zm28.978 27.056c-1.59.222-3.179.333-4.769.333-.776 0-1.7-.074-2.698-.222a6.634 6.634 0 01-2.92-1.146c-.924-.628-1.7-1.552-2.328-2.846-.629-1.257-.961-3.068-.961-5.322V21.734h-4.657v-5.249h4.657V8.317h6.431v8.168h6.284v5.286h-6.284v11.125c0 1.146.074 2.107.259 2.772.185.703.443 1.22.813 1.59.37.37.776.59 1.257.739a7.37 7.37 0 001.663.185c.517 0 1.109-.037 1.774-.074.481 0 .998-.074 1.479-.185v5.618zM191.277 6.616c0-1.33.481-2.44 1.368-3.326.924-.924 2.033-1.368 3.326-1.368 1.331 0 2.477.444 3.401 1.368.924.924 1.367 2.033 1.367 3.326 0 1.257-.443 2.366-1.367 3.29-.924.924-2.033 1.367-3.401 1.367-1.293 0-2.402-.443-3.326-1.367-.887-.85-1.368-2.07-1.368-3.29zM1.663 13.935l5.396-2.662c2.292 4.88 8.613 8.39 15.931 8.39 7.245 0 13.528-3.437 15.857-8.242l5.322 2.736c-3.437 7.06-11.828 11.642-21.216 11.642-9.462 0-17.926-4.694-21.29-11.864z" fill="#000"/><path d="M12.123 7.799c-2.217 0-4.028 1.737-4.028 3.918v21.068c0 1.442.813 2.772 2.143 3.438l10.793 5.507a4.227 4.227 0 003.77 0l10.793-5.508a3.841 3.841 0 002.144-3.437V11.717c0-2.144-1.811-3.918-4.029-3.918H12.123zm0-7.799h21.55c6.69 0 12.123 5.249 12.123 11.717v21.068c0 4.362-2.477 8.317-6.469 10.35l-10.756 5.507a12.451 12.451 0 01-11.31 0L6.468 43.134C2.476 41.102 0 37.11 0 32.785V11.717C.037 5.249 5.433 0 12.123 0z" fill="#000"/></svg>