<svg width="240" height="50" fill="none" xmlns="http://www.w3.org/2000/svg"><path d="M80.82 0C66.28 0 54.88 11.017 54.88 25v.116C54.88 39.33 66.009 50 80.704 50c14.54 0 26.016-11.017 26.016-25v-.116C106.719 10.67 95.591 0 80.819 0zM66.356 24.884c0-8.436 6.165-14.83 14.423-14.83 8.298 0 14.54 6.394 14.54 14.946v.116c0 8.436-6.165 14.83-14.423 14.83-8.297 0-14.54-6.394-14.54-14.946v-.116zM136.69 0c-14.539 0-26.015 11.017-26.015 25v.116C110.674 39.33 121.801 50 136.496 50c14.539 0 26.015-11.017 26.015-25v-.116C162.589 10.67 151.461 0 136.689 0zm-14.461 24.884c0-8.436 6.164-14.83 14.423-14.83 8.297 0 14.539 6.394 14.539 14.946v.116c0 8.436-6.165 14.83-14.423 14.83-8.297 0-14.539-6.394-14.539-14.946v-.116zM222.724.501c-6.126 0-11.089 2.35-15.237 7.242C204.734 3.082 199.965.5 193.955.5c-6.319 0-10.235 2.927-12.949 6.086V2.35a.858.858 0 00-.853-.848h-10.352c-.504 0-.892.386-.892.848v44.953c0 .463.388.848.892.848h10.352a.833.833 0 00.853-.848V21.995c0-6.279 3.489-10.362 8.801-10.362 5.35 0 8.297 3.583 8.297 9.977v25.694c0 .462.388.847.892.847h10.352c.465 0 .892-.385.892-.848V21.88c0-6.395 3.295-10.285 8.801-10.285 6.901 0 8.297 5.508 8.297 10.092v25.655c0 .462.388.848.892.848h10.352c.504 0 .892-.386.892-.848V18.53C239.512 7.28 233.192.5 222.724.5zM38.286 20.647c.117.116.272.193.388.193.117 0 .31-.077.388-.193L55.152 2.35c.117-.193.117-.385.078-.578-.078-.193-.272-.308-.504-.308H40.884c-.116 0-.31.077-.388.192l-9.15 10.362a.486.486 0 000 .694l6.94 7.935zm-1.977 2.196L17.738 1.733c-.117-.115-.272-.192-.388-.192H3.663c-.194-.077-.465.077-.504.27-.077.192-.077.385.078.577L21.46 23.035.135 47.342c-.116.116-.194.385-.077.578.077.192.27.308.504.308h13.841c.116 0 .31-.077.388-.193l14.617-16.64c.077 0 .077-.078.077-.078l6.824-7.82c.155-.23.155-.462 0-.654zm21.557 24.46L39.062 25.886c-.116-.116-.271-.193-.388-.193-.116 0-.31.077-.388.193l-6.9 7.82a.486.486 0 000 .693l11.98 13.636c.116.116.271.193.387.193H57.48a.606.606 0 00.504-.308.677.677 0 00-.117-.617z" fill="#54B948"/></svg>