<svg viewBox="0 0 56 56" fill="none" xmlns="http://www.w3.org/2000/svg">
  <path d="M28 14 C28 14 20 11 10 13 L10 44 C20 42 28 45 28 45 C28 45 36 42 46 44 L46 13 C36 11 28 14 28 14Z" fill="#5B4FCF"/>
  <rect x="26" y="14" width="4" height="31" rx="2" fill="#3b2fa0"/>
  <path d="M14 18 C18 17 22 17 26 18" stroke="white" stroke-width="2" stroke-linecap="round" fill="none"/>
  <path d="M14 23 C18 22 22 22 26 23" stroke="white" stroke-width="2" stroke-linecap="round" fill="none"/>
  <path d="M14 28 C18 27 22 27 26 28" stroke="white" stroke-width="2" stroke-linecap="round" fill="none"/>
  <path d="M30 18 C34 17 38 17 42 18" stroke="white" stroke-width="2" stroke-linecap="round" fill="none"/>
  <path d="M30 23 C34 22 38 22 42 23" stroke="white" stroke-width="2" stroke-linecap="round" fill="none"/>
  <path d="M30 28 C34 27 38 27 42 28" stroke="white" stroke-width="2" stroke-linecap="round" fill="none"/>
</svg>
