<svg width="40" height="40" viewBox="0 0 40 40" fill="none" xmlns="http://www.w3.org/2000/svg">
<rect width="40" height="40" rx="20" fill="#1E1E1E"/>
<path d="M12.4023 25.8344C12.0117 26.2249 12.0117 26.8581 12.4023 27.2486C12.7928 27.6391 13.426 27.6391 13.8165 27.2486L12.4023 25.8344ZM27.1926 13.4582C27.1926 12.906 26.7449 12.4582 26.1926 12.4582L17.1926 12.4583C16.6403 12.4582 16.1926 12.906 16.1926 13.4582C16.1926 14.0105 16.6403 14.4582 17.1926 14.4583L25.1926 14.4582L25.1926 22.4583C25.1926 23.0105 25.6403 23.4583 26.1926 23.4583C26.7449 23.4583 27.1926 23.0105 27.1926 22.4583L27.1926 13.4582ZM13.8165 27.2486L26.8997 14.1654L25.4855 12.7511L12.4023 25.8344L13.8165 27.2486Z" fill="#DBFF54"/>
</svg>
