<svg width="36" height="29" viewBox="0 0 36 29" fill="none" xmlns="http://www.w3.org/2000/svg">
<g clip-path="url(#clip0_1282_12425)">
<mask id="mask0_1282_12425" style="mask-type:luminance" maskUnits="userSpaceOnUse" x="-3" y="-1" width="42" height="32">
<rect x="-2.99861" y="-0.999512" width="41.8217" height="31.3662" fill="white"/>
</mask>
<g mask="url(#mask0_1282_12425)">
<path fill-rule="evenodd" clip-rule="evenodd" d="M-2.99911 -0.999512V30.3667H38.8226V-0.999512H-2.99911Z" fill="#2E42A5"/>
<mask id="mask1_1282_12425" style="mask-type:luminance" maskUnits="userSpaceOnUse" x="-3" y="-1" width="42" height="32">
<path fill-rule="evenodd" clip-rule="evenodd" d="M-2.99911 -0.999512V30.3667H38.8226V-0.999512H-2.99911Z" fill="white"/>
</mask>
<g mask="url(#mask1_1282_12425)">
<mask id="mask2_1282_12425" style="mask-type:luminance" maskUnits="userSpaceOnUse" x="-3" y="-1" width="42" height="32">
<rect x="-2.99961" y="-0.999512" width="41.8217" height="31.3662" fill="white"/>
</mask>
<g mask="url(#mask2_1282_12425)">
<path d="M-7.65282 28.126L1.55015 32.0181L39.0344 3.23219L43.8888 -2.55159L34.0475 -3.85245L18.7586 8.55221L6.45257 16.91L-7.65282 28.126Z" fill="#F9F9F9"/>
<path d="M-6.39363 30.8527L-1.70514 33.1113L42.1449 -3.08917H35.5617L-6.39363 30.8527Z" fill="#F50100"/>
<path d="M43.4795 28.126L34.2765 32.0181L-3.20778 3.23219L-8.06213 -2.55159L1.77912 -3.85245L17.0681 8.55221L29.3741 16.91L43.4795 28.126Z" fill="#F9F9F9"/>
<path d="M43.1652 30.0827L38.4767 32.3413L19.8049 16.842L14.2691 15.1103L-8.52947 -2.53217H-1.94629L20.8395 14.6915L26.8919 16.768L43.1652 30.0827Z" fill="#F50100"/>
<mask id="path-10-inside-1_1282_12425" fill="white">
<path fill-rule="evenodd" clip-rule="evenodd" d="M22.8453 -3.61328H12.9708V9.45589H-5.58125V19.9113H12.9708V32.9807H22.8453V19.9113H41.4681V9.45589H22.8453V-3.61328Z"/>
</mask>
<path fill-rule="evenodd" clip-rule="evenodd" d="M22.8453 -3.61328H12.9708V9.45589H-5.58125V19.9113H12.9708V32.9807H22.8453V19.9113H41.4681V9.45589H22.8453V-3.61328Z" fill="#F50100"/>
<path d="M12.9708 -3.61328V-6.22713H10.3569V-3.61328H12.9708ZM22.8453 -3.61328H25.4592V-6.22713H22.8453V-3.61328ZM12.9708 9.45589V12.0697H15.5846V9.45589H12.9708ZM-5.58125 9.45589V6.84203H-8.1951V9.45589H-5.58125ZM-5.58125 19.9113H-8.1951V22.5252H-5.58125V19.9113ZM12.9708 19.9113H15.5846V17.2974H12.9708V19.9113ZM12.9708 32.9807H10.3569V35.5945H12.9708V32.9807ZM22.8453 32.9807V35.5945H25.4592V32.9807H22.8453ZM22.8453 19.9113V17.2974H20.2315V19.9113H22.8453ZM41.4681 19.9113V22.5252H44.082V19.9113H41.4681ZM41.4681 9.45589H44.082V6.84203H41.4681V9.45589ZM22.8453 9.45589H20.2315V12.0697H22.8453V9.45589ZM12.9708 -0.999428H22.8453V-6.22713H12.9708V-0.999428ZM15.5846 9.45589V-3.61328H10.3569V9.45589H15.5846ZM-5.58125 12.0697H12.9708V6.84203H-5.58125V12.0697ZM-2.96739 19.9113V9.45589H-8.1951V19.9113H-2.96739ZM12.9708 17.2974H-5.58125V22.5252H12.9708V17.2974ZM15.5846 32.9807V19.9113H10.3569V32.9807H15.5846ZM22.8453 30.3668H12.9708V35.5945H22.8453V30.3668ZM20.2315 19.9113V32.9807H25.4592V19.9113H20.2315ZM41.4681 17.2974H22.8453V22.5252H41.4681V17.2974ZM38.8543 9.45589V19.9113H44.082V9.45589H38.8543ZM22.8453 12.0697H41.4681V6.84203H22.8453V12.0697ZM20.2315 -3.61328V9.45589H25.4592V-3.61328H20.2315Z" fill="#F9F9F9" mask="url(#path-10-inside-1_1282_12425)"/>
</g>
</g>
</g>
</g>
<defs>
<clipPath id="clip0_1282_12425">
<rect width="36" height="28.5" rx="5.55975" fill="white"/>
</clipPath>
</defs>
</svg>
