<svg width="36" height="29" viewBox="0 0 36 29" fill="none" xmlns="http://www.w3.org/2000/svg">
<g clip-path="url(#clip0_1282_12449)">
<rect y="0.115723" width="36" height="28.5" rx="5.55975" fill="#F0EDFC"/>
<mask id="mask0_1282_12449" style="mask-type:luminance" maskUnits="userSpaceOnUse" x="0" y="-4" width="36" height="37">
<rect x="0.00131989" y="-3.6333" width="35.998" height="35.998" fill="white"/>
</mask>
<g mask="url(#mask0_1282_12449)">
<path fill-rule="evenodd" clip-rule="evenodd" d="M0.000865936 -3.6333V32.3647H35.9988V-3.6333H0.000865936Z" fill="#F7FCFF"/>
<mask id="mask1_1282_12449" style="mask-type:luminance" maskUnits="userSpaceOnUse" x="0" y="-4" width="36" height="37">
<path fill-rule="evenodd" clip-rule="evenodd" d="M0.000865936 -3.6333V32.3647H35.9988V-3.6333H0.000865936Z" fill="white"/>
</mask>
<g mask="url(#mask1_1282_12449)">
<path fill-rule="evenodd" clip-rule="evenodd" d="M0.000865936 -3.6333V8.36602H35.9988V-3.6333H0.000865936Z" fill="#FF8C1A"/>
<path fill-rule="evenodd" clip-rule="evenodd" d="M0.000865936 20.3652V32.3645H35.9988V20.3652H0.000865936Z" fill="#5EAA22"/>
<path fill-rule="evenodd" clip-rule="evenodd" d="M13.5053 14.3655C13.5053 16.8506 15.5199 18.8652 18.005 18.8652C20.4901 18.8652 22.5047 16.8506 22.5047 14.3655C22.5047 11.8803 20.4901 9.86572 18.005 9.86572C15.5199 9.86572 13.5053 11.8803 13.5053 14.3655ZM21.3803 14.3654C21.3803 16.2293 19.8694 17.7403 18.0055 17.7403C16.1416 17.7403 14.6307 16.2293 14.6307 14.3654C14.6307 12.5016 16.1416 10.9906 18.0055 10.9906C19.8694 10.9906 21.3803 12.5016 21.3803 14.3654Z" fill="#3D58DB"/>
<path fill-rule="evenodd" clip-rule="evenodd" d="M17.9962 15.3342L17.3541 18.8446L17.7269 15.2955L16.1218 18.4828L17.4795 15.1825L15.0414 17.7885L17.2739 15.0043L14.2004 16.8178L17.1268 14.7754L13.6668 15.6496L17.0501 14.5144L13.4841 14.3784L17.0501 14.2424L13.6668 13.1072L17.1268 13.9813L14.2004 11.9389L17.2739 13.7525L15.0414 10.9683L17.4795 13.5743L16.1218 10.274L17.7269 13.4613L17.3541 9.91214L17.9962 13.4226L18.6384 9.91214L18.2655 13.4613L19.8707 10.274L18.513 13.5743L20.9511 10.9683L18.7186 13.7525L21.7921 11.9389L18.8657 13.9813L22.3256 13.1072L18.9423 14.2424L22.5084 14.3784L18.9423 14.5144L22.3256 15.6496L18.8657 14.7754L21.7921 16.8178L18.7186 15.0043L20.9511 17.7885L18.513 15.1825L19.8707 18.4828L18.2655 15.2955L18.6384 18.8446L17.9962 15.3342Z" fill="#3D58DB"/>
</g>
</g>
</g>
<defs>
<clipPath id="clip0_1282_12449">
<rect y="0.115723" width="36" height="28.5" rx="5.55975" fill="white"/>
</clipPath>
</defs>
</svg>
