<?xml version="1.0" encoding="UTF-8" standalone="yes"?>
<svg version="1.2" width="1000" height="1000" baseProfile="tiny-ps" xmlns="http://www.w3.org/2000/svg">
  <title>bimi-svg-tiny-12-ps</title>
  <path d="M0 0 C1.04590805 0.00222061 2.0918161 0.00444122 3.16941833 0.00672913 C4.35056717 0.00680466 5.531716 0.00688019 6.74865723 0.00695801 C8.03404892 0.01211929 9.31944061 0.01728058 10.64378357 0.02259827 C12.60601112 0.02472069 12.60601112 0.02472069 14.60787964 0.02688599 C18.09150591 0.03071042 21.57509071 0.04054005 25.05870056 0.05158997 C28.6111444 0.06180569 32.16359491 0.06638395 35.71604919 0.07142639 C42.69067564 0.0821624 49.66527449 0.09923792 56.63987732 0.12025452 C58.29693748 3.43437483 57.75938647 7.13609181 57.73753357 10.77845764 C57.7353899 12.15085649 57.7353899 12.15085649 57.73320293 13.55098057 C57.72941689 15.57896573 57.72329968 17.60694747 57.71523094 19.63492012 C57.70202391 22.99131816 57.69496131 26.34768257 57.68939209 29.70410156 C57.68073444 34.68526369 57.66979323 39.66641363 57.65736389 44.64756775 C57.6246338 58.55641165 57.62173098 72.46528402 57.62034607 86.37416077 C57.62024654 87.12777177 57.62014701 87.88138278 57.62004447 88.65783048 C57.61568793 127.71581709 57.708266 166.77353784 57.875597 205.83115959 C57.91984782 216.18565404 57.95972219 226.54011212 57.98631287 236.89466858 C58.00934865 245.83751922 58.04278836 254.78026219 58.08857888 263.72302634 C58.11190011 268.32803957 58.13103021 272.93295261 58.13749123 277.53802299 C57.87056999 368.54417626 57.87056999 368.54417626 97.63987732 447.12025452 C105.57029003 454.52530865 115.87292697 461.33473648 127.19456482 461.05775452 C129.88992445 460.31394723 129.88992445 460.31394723 131.19456482 457.50697327 C139.09438816 435.37344455 144.02007912 412.45536926 146.63987732 389.12025452 C146.763133 388.05392701 146.763133 388.05392701 146.8888787 386.96605754 C148.91572755 368.85907205 148.94413115 350.79793378 148.9418925 332.60721302 C148.94355281 328.14673607 148.95672149 323.68628993 148.96842957 319.22583008 C148.98715978 311.52472682 148.99896095 303.82363911 149.00596809 296.12251663 C149.01619778 284.98733136 149.03829731 273.85219307 149.06335401 262.71703242 C149.10380053 244.64311635 149.1363292 226.56919577 149.16307068 208.49525452 C149.16466798 207.41694897 149.16626528 206.33864342 149.16791099 205.22766195 C149.16950989 204.14791822 149.17110878 203.06817449 149.17275614 201.95571125 C149.19551613 186.59616725 149.2201506 171.23662778 149.24705505 155.87709045 C149.2489512 154.79344511 149.25084734 153.70979977 149.25280095 152.59331669 C149.28452771 134.55418874 149.32026086 116.51507004 149.35809654 98.47595394 C149.38115701 87.35837397 149.40010356 76.24080033 149.41376328 65.12320475 C149.42325916 57.52645585 149.43608222 49.9297176 149.45157213 42.33297856 C149.46037092 37.94596592 149.46745365 33.55896651 149.47021294 29.17194557 C149.47274917 25.16354517 149.4797728 21.15517965 149.49048518 17.14679299 C149.49354535 15.69054358 149.49488149 14.2342894 149.49439687 12.77803685 C149.49397225 10.81181908 149.50017671 8.8456031 149.50679874 6.87939644 C149.50837264 5.78346047 149.50994654 4.68752449 149.51156813 3.55837834 C149.63987732 1.12025452 149.63987732 1.12025452 150.63987732 0.12025452 C152.48105761 0.02644149 154.32585373 0.00281498 156.16941833 0.00672913 C157.35056717 0.00680466 158.531716 0.00688019 159.74865723 0.00695801 C161.03404892 0.01211929 162.31944061 0.01728058 163.64378357 0.02259827 C164.95193527 0.02401321 166.26008698 0.02542816 167.60787964 0.02688599 C171.09150591 0.03071042 174.57509071 0.04054005 178.05870056 0.05158997 C181.6111444 0.06180569 185.16359491 0.06638395 188.71604919 0.07142639 C195.69067564 0.0821624 202.66527449 0.09923792 209.63987732 0.12025452 C210.628784 3.08697456 210.7660817 5.01214931 210.76851177 8.10642719 C210.77173622 9.14240144 210.77496066 10.17837569 210.77828282 11.2457431 C210.77595992 12.95870308 210.77595992 12.95870308 210.77359009 14.70626831 C210.77585564 15.91681387 210.7781212 17.12735943 210.78045541 18.37458819 C210.78570332 21.74178306 210.78643806 25.10892467 210.78526103 28.47611988 C210.78505734 32.10653561 210.79057353 35.73694333 210.7953186 39.36735535 C210.80363871 46.48977263 210.80637425 53.61218165 210.80693098 60.73460338 C210.80740645 66.53757499 210.8094628 72.34054388 210.81263161 78.14351463 C210.82144965 94.63041775 210.82605035 111.11731434 210.82530113 127.60421983 C210.82526118 128.49372759 210.82522122 129.38323534 210.82518005 130.29969788 C210.82513917 131.1903071 210.82509829 132.08091633 210.82505617 132.99851372 C210.8246516 147.3628555 210.83417008 161.72717082 210.84831842 176.09150497 C210.86276264 190.8745689 210.8695839 205.65762002 210.86872464 220.44069117 C210.86839495 228.72583072 210.8710397 237.01094269 210.88190269 245.29607582 C210.89111512 252.3676827 210.89309743 259.43924959 210.88639327 266.51085994 C210.88317831 270.10542329 210.88288264 273.69991044 210.89174652 277.29446602 C211.02553825 335.36404415 207.40447218 406.2163159 164.45628357 450.46009827 C156.45767609 458.01495499 144.70281996 465.39729075 133.38987732 465.43275452 C132.15237732 465.32962952 130.91487732 465.22650452 129.63987732 465.12025452 C129.39108826 465.95427795 129.14229919 466.78830139 128.88597107 467.64759827 C122.16433035 486.37969419 108.26049879 503.29109334 90.37425232 511.95619202 C80.74070731 516.05732975 69.09517583 515.14086951 59.47972107 511.43666077 C38.89785425 501.89596047 27.25939343 481.79427264 19.56126404 461.2403717 C1.75238837 412.06263991 -1.74636322 361.24287515 -2.91041565 309.44154358 C-2.93153404 308.50972275 -2.95265243 307.57790193 -2.97441077 306.6178441 C-3.57167716 279.32244793 -3.5074289 252.02044594 -3.49542303 224.72002976 C-3.49310994 219.3207553 -3.49286449 213.92148398 -3.49393845 208.52220917 C-3.49409168 207.7431677 -3.49424491 206.96412624 -3.49440279 206.16147746 C-3.4947226 204.57764123 -3.49504681 202.993805 -3.49537538 201.40996876 C-3.49819367 186.73430879 -3.49499708 172.05865517 -3.48957501 157.38299623 C-3.48507089 144.8001326 -3.48591928 132.21727816 -3.49049377 119.63441467 C-3.4958373 104.92977633 -3.49796011 90.22514341 -3.49488151 75.52050424 C-3.49456301 73.95713822 -3.49424864 72.39377221 -3.49393845 70.83040619 C-3.49378417 70.06157814 -3.4936299 69.29275009 -3.49347094 68.50062422 C-3.49260803 63.0874128 -3.49406299 57.67420484 -3.496418 52.26099396 C-3.49921192 45.69719522 -3.49848478 39.13340845 -3.49313726 32.5696111 C-3.49050076 29.22342275 -3.49002889 25.87727109 -3.49278641 22.53108025 C-3.4954939 18.91452404 -3.49212236 15.29802526 -3.48710632 11.68147278 C-3.48933704 10.61394264 -3.49156777 9.5464125 -3.49386609 8.44653296 C-3.49125834 7.48649242 -3.48865059 6.52645187 -3.48596382 5.53731918 C-3.48580147 4.70240535 -3.48563912 3.86749151 -3.48547184 3.00727725 C-3.2957568 0.15128207 -2.86266999 0.14586064 0 0 Z " fill="#6425D9" transform="translate(277.36012268066406,242.87974548339844)"/>
  <path d="M0 0 C31.21175725 22.88208891 39.5666147 73.55862086 45.23828125 108.94921875 C45.53641724 110.78516602 45.53641724 110.78516602 45.84057617 112.65820312 C48.95411432 133.08237278 49.89803627 153.76328139 50.60107422 174.38842773 C50.64309393 175.59096534 50.68511364 176.79350294 50.72840667 178.03248107 C51.76795189 208.5497657 51.75179535 239.06413723 51.6953587 269.59535471 C51.68064381 277.77722514 51.67802134 285.95908923 51.67576538 294.140971 C51.67144827 308.71760905 51.65830716 323.29422401 51.63916016 337.87084961 C51.62064257 351.98347869 51.60656518 366.09610137 51.59814453 380.20874023 C51.59761908 381.08687667 51.59709364 381.96501311 51.59655227 382.86975975 C51.59394113 387.27757085 51.59141397 391.685382 51.58892846 396.09319317 C51.56838355 432.33688893 51.53161938 468.58054168 51.48828125 504.82421875 C31.68828125 504.82421875 11.88828125 504.82421875 -8.51171875 504.82421875 C-8.5367749 498.23614258 -8.56183105 491.64806641 -8.58764648 484.86035156 C-8.669792 463.38936238 -8.75533844 441.91838774 -8.84283569 420.44741972 C-8.85659318 417.07074085 -8.87032207 413.69406187 -8.8840332 410.31738281 C-8.88676151 409.64559426 -8.88948981 408.97380571 -8.89230079 408.28165993 C-8.93284964 398.28185478 -8.97147619 388.28204347 -9.0090332 378.28222656 C-9.13735392 344.26402485 -9.28937382 310.24604818 -9.49163342 276.22819901 C-9.51128379 272.89793385 -9.53031738 269.56766565 -9.54923248 266.23739624 C-9.61757653 254.37805494 -9.70212722 242.51902183 -9.81263924 230.65999603 C-9.84433071 227.22121265 -9.87022676 223.78247635 -9.89013481 220.34360504 C-10.2095269 167.29180236 -11.28965792 98.68061128 -49.66015625 57.51953125 C-57.92837347 49.60950394 -68.91271631 43.82421875 -80.51171875 43.82421875 C-96.49403557 78.61758103 -100.65728122 119.36239914 -100.66320801 157.24397278 C-100.66706856 158.74852171 -100.6713579 160.2530696 -100.6760335 161.75761622 C-100.68755482 165.85142377 -100.69312902 169.94522026 -100.69766831 174.03904068 C-100.70366283 178.46899283 -100.71531846 182.8989306 -100.7263031 187.32887268 C-100.74458132 194.99084401 -100.75945459 202.65281572 -100.77207947 210.31479836 C-100.79042664 221.39362887 -100.81508784 232.47243867 -100.84145337 243.55125269 C-100.88416271 261.53033693 -100.92330267 279.50942685 -100.95947266 297.48852539 C-100.96163546 298.56294861 -100.96379826 299.63737182 -100.9660266 300.74435332 C-100.98356055 309.46885052 -101.00091748 318.19334808 -101.01822948 326.91784573 C-101.03340086 334.56347608 -101.04863052 342.2091063 -101.06396484 349.85473633 C-101.06612371 350.9317852 -101.06828258 352.00883406 -101.07050687 353.11852077 C-101.10656675 371.04888406 -101.14650702 388.97923665 -101.18926764 406.90958518 C-101.21545427 417.96898608 -101.23810571 429.02838369 -101.25625122 440.08780076 C-101.26888198 447.65099797 -101.2849942 455.21418244 -101.30390036 462.77736656 C-101.31469355 467.14608805 -101.32379942 471.51479713 -101.32859612 475.88352966 C-101.33300449 479.87563754 -101.34191717 483.86770804 -101.35453933 487.85979816 C-101.35829863 489.31025924 -101.36033749 490.76072593 -101.36055952 492.21119187 C-101.36109472 494.16973085 -101.36826203 496.12826477 -101.37584686 498.08678913 C-101.37796283 499.17849047 -101.3800788 500.27019181 -101.38225889 501.39497501 C-101.51171875 503.82421875 -101.51171875 503.82421875 -102.51171875 504.82421875 C-104.35289904 504.91803177 -106.19769516 504.94165829 -108.04125977 504.93774414 C-109.2224086 504.93766861 -110.40355743 504.93759308 -111.62049866 504.93751526 C-112.90589035 504.93235397 -114.19128204 504.92719269 -115.515625 504.921875 C-116.8237767 504.92046005 -118.13192841 504.9190451 -119.47972107 504.91758728 C-122.96334734 504.91376285 -126.44693214 504.90393321 -129.93054199 504.8928833 C-133.48298583 504.88266757 -137.03543634 504.87808931 -140.58789062 504.87304688 C-147.56251707 504.86231087 -154.53711592 504.84523535 -161.51171875 504.82421875 C-161.6625669 467.66853019 -161.80759889 430.51282318 -161.94496635 393.35708225 C-161.9612349 388.95802538 -161.97755099 384.55896869 -161.99389648 380.15991211 C-161.99714941 379.28423851 -162.00040233 378.40856492 -162.00375383 377.50635576 C-162.05635153 363.37770538 -162.11278898 349.24907287 -162.17067695 335.12044329 C-162.23010808 320.59402724 -162.28533983 306.06759948 -162.33677429 291.54115289 C-162.36857231 282.5970758 -162.40354109 273.65302317 -162.44273066 264.70897537 C-162.46938729 258.55321647 -162.4919192 252.39745055 -162.51138992 246.24166477 C-162.52269423 242.70445855 -162.53564099 239.16728164 -162.55354881 235.63010216 C-162.65828518 213.86955232 -162.59775532 192.04711358 -160.26171875 170.38671875 C-160.13313477 169.18700439 -160.00455078 167.98729004 -159.87207031 166.7512207 C-155.74920214 130.51901723 -146.73154656 90.32127884 -122.51171875 61.82421875 C-121.89683594 61.06496094 -121.28195313 60.30570312 -120.6484375 59.5234375 C-111.85007378 49.0324026 -100.13190432 41.31149224 -86.26171875 40.01171875 C-84.67931172 39.92902234 -83.0959138 39.85852219 -81.51171875 39.82421875 C-81.25261719 38.96828125 -80.99351563 38.11234375 -80.7265625 37.23046875 C-74.16856652 18.84277584 -59.74053083 1.3627469 -42.2109375 -7.046875 C-27.64679805 -13.13809975 -12.45369767 -8.40228259 0 0 Z " fill="#6425D9" transform="translate(206.51171875,240.17578125)"/>
  <path d="M0 0 C4.62 0 9.24 0 14 0 C14.58658134 2.78709412 14.58658134 2.78709412 15.18501282 5.63049316 C15.74874738 8.30900095 16.31248332 10.98750844 16.8762207 13.66601562 C17.02835667 14.38886796 17.18049264 15.1117203 17.33723879 15.85647726 C19.26746184 25.02762357 21.19782038 34.19874133 23.12840271 43.36981201 C23.70155822 46.09256222 24.27471229 48.81531273 24.84786499 51.53806353 C25.2418754 53.40980202 25.63588764 55.28154013 26.02990162 57.15327787 C28.47995775 68.79223225 30.9293394 80.43132821 33.3777703 92.07062459 C35.64845312 102.86490276 37.91968026 113.65906632 40.19140625 124.453125 C40.39813697 125.43542556 40.6048677 126.41772612 40.81786299 127.42979336 C46.1637884 152.83028125 51.52487585 178.22746522 56.91770834 203.61803722 C58.05467702 208.9712222 59.19055545 214.3246374 60.32563782 219.67822266 C60.48119198 220.41184304 60.63674614 221.14546343 60.79701406 221.90131474 C61.41251147 224.80415008 62.0279945 227.70698847 62.64335072 230.60985374 C64.4061626 238.92533207 66.17335812 247.23985002 67.94787771 255.55283809 C69.17395914 261.29840571 70.3929524 267.04546192 71.60930061 272.79309845 C72.10218248 275.11600203 72.59753419 277.43838318 73.09557915 279.76018524 C73.76779718 282.89510345 74.43135234 286.03173426 75.09277344 289.16894531 C75.2887679 290.07241447 75.48476236 290.97588364 75.68669605 291.90673065 C76.68979462 296.7145296 77.20289949 301.08833623 77 306 C67.85431891 308.28642027 59.29569474 307.14639604 51.19921875 302.3359375 C28.21852698 286.37977253 17.49623161 257.2862972 12.37011719 230.73779297 C9.53201119 214.57545287 7.80466669 198.60774098 7.9375 182.1875 C7.94201172 181.10146484 7.94652344 180.01542969 7.95117188 178.89648438 C7.96276757 176.26426073 7.97908172 173.63216315 8 171 C12.05285525 171.59459018 14.97929718 172.90428832 18.51953125 174.94140625 C19.54111328 175.52470703 20.56269531 176.10800781 21.61523438 176.70898438 C22.67033203 177.32064453 23.72542969 177.93230469 24.8125 178.5625 C25.88693359 179.17802734 26.96136719 179.79355469 28.06835938 180.42773438 C30.71587518 181.94564344 33.35951856 183.46989764 36 185 C33.92546631 179.5168049 31.32210336 175.52797571 27.5625 171.0625 C26.49256764 169.76093964 25.42493654 168.45748483 24.359375 167.15234375 C23.80958984 166.47929199 23.25980469 165.80624023 22.69335938 165.11279297 C19.26387773 160.83385206 16.01511964 156.4178965 12.74633789 152.01586914 C10.51670216 148.88753485 10.51670216 148.88753485 8 146 C7.84815681 144.46712429 7.76193121 142.92767344 7.70288086 141.38842773 C7.66291489 140.40748642 7.62294891 139.4265451 7.58177185 138.4158783 C7.54318558 137.3492244 7.5045993 136.2825705 7.46484375 135.18359375 C7.42186661 134.0974025 7.37888947 133.01121124 7.33460999 131.8921051 C7.19776534 128.40739412 7.06756658 124.92246993 6.9375 121.4375 C6.84613927 119.08136326 6.75434814 116.72524316 6.66210938 114.36914062 C6.43640347 108.57961132 6.21615995 102.78989314 6 97 C5.99270874 97.57692093 5.98541748 98.15384186 5.97790527 98.74824524 C5.89370013 104.80160579 5.75465112 110.85201029 5.58496094 116.90356445 C5.52881868 119.15619203 5.48625224 121.40920345 5.45800781 123.66235352 C5.14722428 147.05917357 5.14722428 147.05917357 -4 156 C-5.22574781 157.4918599 -6.4373246 158.9955023 -7.6328125 160.51171875 C-8.79355316 161.90641715 -9.95757325 163.29839334 -11.125 164.6875 C-14.61705946 168.85706545 -18.08782329 173.04052879 -21.4296875 177.33203125 C-21.92452637 177.96471924 -22.41936523 178.59740723 -22.92919922 179.24926758 C-24.26088619 181.08450281 -24.26088619 181.08450281 -24 184 C-23.25314941 183.60619141 -22.50629883 183.21238281 -21.73681641 182.80664062 C-18.96915473 181.34974972 -16.19960442 179.89653433 -13.42871094 178.44580078 C-12.22904458 177.81673913 -11.03014591 177.18621123 -9.83203125 176.55419922 C-8.11139422 175.64687655 -6.38776861 174.74522848 -4.6640625 173.84375 C-3.62717285 173.29912109 -2.5902832 172.75449219 -1.52197266 172.19335938 C1 171 1 171 3 171 C3.79403217 212.11050648 0.97088586 261.3988594 -28.92407227 293.00561523 C-36.93222797 301.15023403 -45.24838225 306.92730923 -57 307.125 C-60.10672345 307.08969632 -62.97410358 306.75647411 -66 306 C-65.38839854 299.65128691 -64.38308783 293.54929204 -63.00415039 287.32592773 C-62.80137356 286.39314467 -62.59859673 285.46036161 -62.38967514 284.4993124 C-61.71330853 281.39311584 -61.03045486 278.28838223 -60.34765625 275.18359375 C-59.85941665 272.94712357 -59.37160959 270.71055892 -58.88420105 268.47390747 C-57.83387943 263.65807013 -56.78076638 258.84285499 -55.72546387 254.02810669 C-54.04316923 246.35234096 -52.36713973 238.67521617 -50.69238281 230.99780273 C-50.11620065 228.3567003 -49.53999018 225.71560404 -48.96377563 223.07450867 C-48.81976731 222.41441034 -48.67575899 221.75431201 -48.52738678 221.0742107 C-47.49137631 216.32571871 -46.45450332 211.57741551 -45.41732788 206.82917786 C-41.26534809 187.81943281 -37.13135181 168.80584306 -33.01171875 149.7890625 C-32.79794582 148.80226797 -32.79794582 148.80226797 -32.57985425 147.79553819 C-30.74139507 139.30868834 -28.90390184 130.8216295 -27.06663132 122.33452225 C-25.75192933 116.26191022 -24.43662242 110.18942924 -23.12133789 104.11694336 C-22.86797385 102.94706847 -22.61460981 101.77719358 -22.35356808 100.57186794 C-21.10098996 94.78831575 -19.84810606 89.00483014 -18.59458923 83.22148132 C-16.15769763 71.97637146 -13.72519611 60.73034115 -11.30273819 49.48211384 C-10.24338278 44.5635082 -9.18221778 39.64529346 -8.12061667 34.72717208 C-7.24640743 30.67643453 -6.37455321 26.62519943 -5.50443077 22.57358217 C-4.842016 19.49252017 -4.17610123 16.41221441 -3.51074219 13.33178711 C-3.2704705 12.20941839 -3.03019882 11.08704967 -2.78264618 9.93066978 C-2.45091778 8.39943442 -2.45091778 8.39943442 -2.11248779 6.83726501 C-1.92071331 5.94641677 -1.72893883 5.05556852 -1.531353 4.13772488 C-1 2 -1 2 0 0 Z " fill="#6426D9" transform="translate(878,449)"/>
  <path d="M0 0 C1.29349365 0.00523682 2.5869873 0.01047363 3.91967773 0.01586914 C4.9496714 0.01799156 4.9496714 0.01799156 6.00047302 0.02015686 C8.20144949 0.0257706 10.40232557 0.03832532 12.60327148 0.05102539 C14.09220231 0.05603863 15.58113473 0.06060184 17.07006836 0.06469727 C20.72700223 0.07574446 24.38387707 0.09301826 28.04077148 0.11352539 C30.15871749 5.7434805 31.15281592 11.4897051 32.22387695 17.38525391 C32.43232239 18.51307281 32.64076782 19.64089172 32.85552979 20.80288696 C33.54372599 24.53200127 34.22583196 28.26220282 34.90795898 31.99243164 C35.38836925 34.60163097 35.86913155 37.21076294 36.35037231 39.81980896 C37.48934061 45.99884616 38.62402089 52.17866237 39.75705922 58.35878938 C41.40622076 67.35300855 43.06193349 76.34602192 44.71745491 85.33907223 C44.96488909 86.68323645 45.21231991 88.0274013 45.45974731 89.37156677 C45.64155381 90.35919106 45.64155381 90.35919106 45.82703316 91.36676735 C46.64771148 95.82582991 47.46652463 100.28523234 48.28463745 104.74476624 C50.81799873 118.5445359 53.39275751 132.33527772 56.04077148 146.11352539 C56.37077148 146.11352539 56.70077148 146.11352539 57.04077148 146.11352539 C57.168693 145.37930705 57.29661451 144.64508871 57.42841244 143.88862133 C60.53887957 126.03672184 63.65189038 108.18526764 66.76774502 90.33430767 C68.27447663 81.7017682 69.78034184 73.06907925 71.28417969 64.43603516 C72.59468041 56.91288954 73.90679429 49.39002739 75.22085911 41.86750346 C75.91680902 37.88311911 76.61194146 33.89859598 77.30514336 29.91373253 C77.95731353 26.1648903 78.61163608 22.41643021 79.26762772 18.66825485 C79.50828947 17.29091989 79.74815736 15.91344596 79.98718071 14.53582573 C80.31313268 12.65788723 80.64219282 10.78048898 80.97142029 8.90312195 C81.15485709 7.85135615 81.3382939 6.79959036 81.52728939 5.71595287 C82.04077148 3.11352539 82.04077148 3.11352539 83.04077148 0.11352539 C93.60077148 0.11352539 104.16077148 0.11352539 115.04077148 0.11352539 C110.64516672 27.47719007 106.06552902 54.8043519 101.39348149 82.12194538 C100.42138324 87.80789036 99.45108985 93.49414337 98.48057556 99.18035889 C96.64517185 109.93236318 94.80822224 120.68410273 92.97067684 131.43574119 C90.90328996 143.5326492 88.83763784 155.62985322 86.77213871 167.72708368 C84.23829086 182.56720655 81.70413198 197.40727623 79.16871643 212.24713135 C78.9905573 213.2899981 78.81239816 214.33286484 78.62884027 215.40733361 C77.76061989 220.48927373 76.8920593 225.57115525 76.02276707 230.65291214 C74.51114497 239.49168917 73.00228783 248.33089835 71.50638372 257.17235112 C70.85375955 261.02911975 70.19952937 264.88561524 69.54522598 268.74209929 C69.23904272 270.54983997 68.93371555 272.35772589 68.62929547 274.16576433 C68.21369462 276.63404271 67.79526019 279.1018251 67.37620544 281.56951904 C67.25478727 282.29553739 67.13336909 283.02155574 67.00827157 283.76957464 C66.51675905 286.64983815 65.96672277 289.33567152 65.04077148 292.11352539 C59.10077148 292.11352539 53.16077148 292.11352539 47.04077148 292.11352539 C44.79077104 284.23852384 44.79077104 284.23852384 44.23194218 280.99514103 C44.10237474 280.25432539 43.97280729 279.51350975 43.83931357 278.75024515 C43.70478653 277.95828208 43.5702595 277.16631901 43.43165588 276.35035706 C43.28253327 275.49115077 43.13341065 274.63194449 42.97976917 273.74670166 C42.48286436 270.87813845 41.99144049 268.00866415 41.5 265.13916016 C41.14350247 263.07445179 40.78666684 261.00980178 40.42951965 258.94520569 C39.4585364 253.32639072 38.49231428 247.70676619 37.52692533 242.08698773 C36.50449698 236.14003248 35.47770202 230.1938312 34.45140076 224.24754333 C32.49588869 212.9135278 30.54432772 201.5788356 28.59415525 190.24390024 C26.41906079 177.60280474 24.23955846 164.96247064 22.05966496 152.32220197 C19.33078148 136.49852751 16.60270342 120.67471727 13.8812561 104.84976196 C13.08173039 100.20086596 12.28220071 95.55197063 11.48266602 90.90307617 C11.2896891 89.78091996 11.09671217 88.65876376 10.89788747 87.50260282 C8.53093562 73.7409685 6.15284849 59.98135532 3.75621092 46.22485983 C2.95066536 41.59827287 2.14779538 36.9712208 1.34500808 32.34415454 C0.74827691 28.90666547 0.14942626 25.46957502 -0.45458794 22.03335762 C-1.08739459 18.42931644 -1.7137016 14.82420743 -2.33837891 11.21875 C-2.52195765 10.18502951 -2.70553638 9.15130901 -2.89467812 8.08626366 C-3.05266569 7.16676744 -3.21065327 6.24727123 -3.37342834 5.2999115 C-3.51205827 4.50770675 -3.65068819 3.715502 -3.79351902 2.89929104 C-3.84820315 2.30998837 -3.90288729 1.72068571 -3.95922852 1.11352539 C-2.95922852 0.11352539 -2.95922852 0.11352539 0 0 Z " fill="#6425D9" transform="translate(531.959228515625,461.886474609375)"/>
  <path d="M0 0 C3.61397803 2.3937412 6.81828354 5.06175401 10 8 C10.64839844 8.59167969 11.29679688 9.18335938 11.96484375 9.79296875 C13.71963933 11.47096803 15.36664421 13.20410152 17 15 C17.88945313 15.92232422 17.88945313 15.92232422 18.796875 16.86328125 C20.97406703 19.35506754 22.87509273 21.55821843 23.16821289 24.94165039 C22.08850411 33.96237717 19.95955924 42.77859926 17.9375 51.625 C17.55609644 53.31367927 17.17523252 55.00248051 16.79492188 56.69140625 C15.8694994 60.79570417 14.93678107 64.89828038 14 69 C10.38539926 68.23666529 9.19790026 67.39162924 6.9375 64.4375 C1.80421596 58.27089255 -6.31408826 50.73865319 -14.5859375 49.6640625 C-19.05313077 49.60149677 -22.29887197 49.69405322 -26.4375 51.5 C-32.77785338 57.68571062 -34.09750108 65.07807038 -34.29248047 73.63696289 C-34.36120227 82.17774164 -34.0126952 89.26392619 -30 97 C-29.39865234 98.23556641 -29.39865234 98.23556641 -28.78515625 99.49609375 C-23.70451053 108.93578623 -15.69969971 115.94999083 -7.375 122.5 C11.02214527 137.33809583 18.98795426 159.74347134 21.53344727 182.67822266 C24.3808818 215.83451573 23.02834237 253.95273495 1.34765625 281.06640625 C-4.41405156 287.34327852 -12.29163201 291.51637438 -20.8125 292.23828125 C-34.87433226 292.56570136 -46.09085806 287.90020448 -56.6640625 278.67578125 C-59.23094547 276.20583495 -61.63369076 273.6620979 -64 271 C-64.7425 270.18273437 -65.485 269.36546875 -66.25 268.5234375 C-66.91 267.71132813 -67.57 266.89921875 -68.25 266.0625 C-68.83265625 265.35222656 -69.4153125 264.64195312 -70.015625 263.91015625 C-71.6518147 259.07300812 -70.18594101 254.86521162 -69 250 C-68.83822266 249.33576019 -68.67644531 248.67152039 -68.50976562 247.9871521 C-67.18302255 242.5820357 -65.78353761 237.19676623 -64.375 231.8125 C-63.95015617 230.17652695 -63.52567425 228.54045987 -63.1015625 226.90429688 C-62.07187422 222.93510241 -61.03730816 218.96720959 -60 215 C-59.01 215 -58.02 215 -57 215 C-55.30859375 217.08984375 -55.30859375 217.08984375 -53.4375 219.9375 C-47.4271179 228.44855203 -40.84629251 235.39255578 -30.67578125 238.54296875 C-25.12522696 239.49101963 -20.93627907 238.16176744 -16.1875 235.3125 C-8.07696312 226.73850387 -7.50446029 216.15342837 -7.6875 204.81640625 C-8.93497998 189.58155702 -17.32039039 177.49323681 -28.6875 167.75 C-50.20544372 149.28217258 -61.0779882 127.34157001 -64 99 C-64.345469 93.29610273 -64.34074314 87.58723337 -64.3125 81.875 C-64.31067719 81.10786682 -64.30885437 80.34073364 -64.30697632 79.550354 C-64.25886396 67.49906999 -63.73410332 55.78409296 -61 44 C-60.83371094 43.2673291 -60.66742187 42.5346582 -60.49609375 41.77978516 C-56.75391735 25.96215992 -49.88418145 9.79457951 -36.2890625 0.05859375 C-24.96547386 -6.48358682 -11.55646915 -5.79446557 0 0 Z " fill="#6426D9" transform="translate(791,465)"/>
  <path d="M0 0 C9.24 0 18.48 0 28 0 C28 96.36 28 192.72 28 292 C18.76 292 9.52 292 0 292 C0 195.64 0 99.28 0 0 Z " fill="#6425D9" transform="translate(671,462)"/>
  <path d="M0 0 C0.66 0.33 1.32 0.66 2 1 C-2.62 5.62 -7.24 10.24 -12 15 C-12.66 14.67 -13.32 14.34 -14 14 C-12.60919892 12.41224451 -11.21211596 10.82999061 -9.8125 9.25 C-8.64654297 7.92742187 -8.64654297 7.92742187 -7.45703125 6.578125 C-5.11544754 4.12113732 -2.69841735 2.05137234 0 0 Z " fill="#784DE0" transform="translate(97,289)"/>
  <path d="M0 0 C-1.47721422 3.45201639 -3.43794001 5.64961936 -6.125 8.25 C-6.84945312 8.95640625 -7.57390625 9.6628125 -8.3203125 10.390625 C-8.87460937 10.92171875 -9.42890625 11.4528125 -10 12 C-10 8.07290865 -8.72099538 7.1810287 -6.125 4.3125 C-5.04605469 3.10013672 -5.04605469 3.10013672 -3.9453125 1.86328125 C-2 0 -2 0 0 0 Z " fill="#7240DE" transform="translate(754,467)"/>
</svg>