<svg xmlns="http://www.w3.org/2000/svg" xmlns:xlink="http://www.w3.org/1999/xlink" viewBox="0 0 156 156" width="156" height="156" preserveAspectRatio="xMidYMid meet" style="width: 100%; height: 100%; transform: translate3d(0px, 0px, 0px); content-visibility: visible;"><defs><clipPath id="__lottie_element_70"><rect width="156" height="156" x="0" y="0"></rect></clipPath></defs><g clip-path="url(#__lottie_element_70)"><g transform="matrix(1,0,0,1,78,78)" opacity="1" style="display: block;"><g opacity="1" transform="matrix(1,0,0,1,0,0)"><path stroke-linecap="butt" stroke-linejoin="miter" fill-opacity="0" stroke-miterlimit="4" stroke="rgb(0,0,0)" stroke-opacity="1" stroke-width="2" d=" M-69.75,69.25 C-69.75,69.25 69.25,-69.75 69.25,-69.75"></path></g></g><g transform="matrix(1,0,0,1,77.99274444580078,77.99344635009766)" opacity="1" style="display: block;"><g opacity="1" transform="matrix(1,0,0,1,38.236000061035156,30.93199920654297)"><path stroke-linecap="butt" stroke-linejoin="miter" fill-opacity="0" stroke-miterlimit="4" stroke="rgb(0,0,0)" stroke-opacity="1" stroke-width="2" d=" M-25.445999145507812,-25.445999145507812 C-18.930999755859375,-31.961999893188477 -9.932999610900879,-35.99399948120117 0,-35.99399948120117 C0,-35.99399948120117 0,-35.99399948120117 0,-35.99399948120117 C19.865087509155273,-35.99399948120117 35.99399948120117,-19.865087509155273 35.99399948120117,0 C35.99399948120117,19.865087509155273 19.865087509155273,35.99399948120117 0,35.99399948120117 C-19.865087509155273,35.99399948120117 -35.99399948120117,19.865087509155273 -35.99399948120117,0 C-35.99399948120117,-9.932999610900879 -31.961999893188477,-18.930999755859375 -25.445999145507812,-25.445999145507812"></path></g></g><g transform="matrix(-1,0,0,-1,78,78)" opacity="1" style="display: block;"><g opacity="1" transform="matrix(1,0,0,1,38.236000061035156,30.93199920654297)"><path stroke-linecap="butt" stroke-linejoin="miter" fill-opacity="0" stroke-miterlimit="4" stroke="rgb(0,0,0)" stroke-opacity="1" stroke-width="2" d=" M-25.445999145507812,-25.445999145507812 C-18.930999755859375,-31.961999893188477 -9.932999610900879,-35.99399948120117 0,-35.99399948120117 C0,-35.99399948120117 0,-35.99399948120117 0,-35.99399948120117 C19.865087509155273,-35.99399948120117 35.99399948120117,-19.865087509155273 35.99399948120117,0 C35.99399948120117,19.865087509155273 19.865087509155273,35.99399948120117 0,35.99399948120117 C-19.865087509155273,35.99399948120117 -35.99399948120117,19.865087509155273 -35.99399948120117,0 C-35.99399948120117,-9.932999610900879 -31.961999893188477,-18.930999755859375 -25.445999145507812,-25.445999145507812"></path></g></g></g></svg>