<svg width="16" height="15" viewBox="0 0 16 15" fill="none" xmlns="http://www.w3.org/2000/svg">
<path fill-rule="evenodd" clip-rule="evenodd" d="M1.80812 0.833984H11.8432C12.7186 0.833984 13.4286 1.55007 13.4286 2.43411V8.57809C13.4286 9.01875 13.0749 9.37572 12.6383 9.37572C12.2017 9.37572 11.848 9.01875 11.848 8.57809V2.42925H1.80331V12.5128H6.39704H6.40239H8.77336H8.77871L8.79423 12.5133C9.22123 12.5247 9.56369 12.8768 9.56369 13.3099C9.56369 13.743 9.22069 14.0951 8.79423 14.1064V14.108H1.80812C1.59997 14.108 1.39396 14.067 1.20133 13.9865C1.0087 13.9061 0.833727 13.7883 0.686577 13.6398C0.539428 13.4908 0.422779 13.3147 0.343051 13.1203C0.263323 12.9264 0.222656 12.718 0.222656 12.5079V2.43411C0.222656 1.55061 0.932718 0.833984 1.80812 0.833984ZM3.67916 4.29468H9.97393C10.4084 4.29468 10.7605 4.65002 10.7605 5.08853C10.7605 5.52704 10.4084 5.88238 9.97393 5.88238H3.67916C3.24467 5.88238 2.89258 5.52704 2.89258 5.08853C2.89258 4.65002 3.24467 4.29468 3.67916 4.29468ZM9.97393 6.67677H3.67916C3.24467 6.67677 2.89258 7.03211 2.89258 7.47062C2.89258 7.90913 3.24467 8.26447 3.67916 8.26447H9.97393C10.4084 8.26447 10.7605 7.90913 10.7605 7.47062C10.7605 7.03211 10.4084 6.67677 9.97393 6.67677ZM3.67916 9.05887H6.03943C6.47392 9.05887 6.82601 9.41421 6.82601 9.85272C6.82601 10.2912 6.47392 10.6466 6.03943 10.6466H3.67916C3.24467 10.6466 2.89258 10.2912 2.89258 9.85272C2.89258 9.41421 3.24467 9.05887 3.67916 9.05887ZM10.8729 11.1892C10.8012 11.1141 10.7151 11.0542 10.6204 11.0131C10.5256 10.9721 10.4234 10.9505 10.3202 10.9494C10.2169 10.9483 10.1142 10.9683 10.0189 11.0077C9.92314 11.0472 9.83645 11.1055 9.76314 11.1795C9.68984 11.2535 9.63205 11.3409 9.59299 11.4376C9.55393 11.5343 9.53413 11.6374 9.5352 11.7417C9.53627 11.8459 9.55767 11.949 9.59834 12.0446C9.639 12.1402 9.6984 12.2271 9.77278 12.2995L11.3288 13.8699C11.4749 14.0174 11.6723 14.1 11.8789 14.1C12.0854 14.1 12.2829 14.0174 12.429 13.8699L15.5416 10.7285C15.6159 10.6562 15.6753 10.5692 15.716 10.4737C15.7567 10.3781 15.7781 10.2749 15.7791 10.1707C15.7802 10.0665 15.7604 9.96278 15.7213 9.86665C15.6823 9.76998 15.6245 9.6825 15.5512 9.60851C15.4779 9.53453 15.3912 9.47621 15.2954 9.43678C15.1996 9.39736 15.0974 9.37738 14.9942 9.37846C14.8909 9.37954 14.7887 9.40114 14.694 9.44218C14.5993 9.48323 14.5131 9.54317 14.4414 9.61824L11.8789 12.2045L10.8729 11.1892Z" fill="#525F75"/>
</svg>
