<svg xmlns="http://www.w3.org/2000/svg" fill="none" viewBox="0 0 51 51" height="51" width="51">
<rect fill="black" rx="25" height="50" width="50" y="0.939941" x="0.5"></rect>
<path fill="white" d="M27.2705 30.6411L28.4334 28.2162C29.7861 29.1235 31.081 29.5771 32.3181 29.5771C32.8295 29.5771 33.3079 29.4781 33.7533 29.2802C34.1986 29.0823 34.4213 28.7771 34.4213 28.3647C34.4213 27.8863 33.6873 27.4822 32.2192 27.1523C30.817 26.8224 29.7448 26.3852 29.0025 25.8409C28.2602 25.2965 27.8891 24.4635 27.8891 23.3418C27.8891 22.1541 28.3757 21.2221 29.3489 20.5458C30.3387 19.853 31.4521 19.5066 32.6893 19.5066C34.1739 19.5066 35.6915 19.9025 37.2421 20.6943L36.0791 23.1191C35.0069 22.5748 33.877 22.3026 32.6893 22.3026C32.3099 22.3026 31.9635 22.3933 31.6501 22.5748C31.3532 22.7562 31.2047 22.9954 31.2047 23.2923C31.2047 23.7377 31.782 24.0759 32.9367 24.3068C33.5965 24.4388 34.1821 24.5955 34.6935 24.7769C35.2049 24.9584 35.708 25.2058 36.2028 25.5192C36.6977 25.8161 37.0771 26.2038 37.341 26.6822C37.605 27.144 37.7369 27.6884 37.7369 28.3152C37.7369 29.041 37.5637 29.6843 37.2173 30.2452C36.8709 30.7895 36.4173 31.2102 35.8564 31.5071C35.2956 31.804 34.7182 32.0185 34.1244 32.1504C33.5306 32.2989 32.9285 32.3731 32.3181 32.3731C31.4934 32.3731 30.6933 32.2576 29.918 32.0267C29.1428 31.7793 28.5654 31.5401 28.186 31.3092C27.8066 31.0782 27.5014 30.8555 27.2705 30.6411Z"></path>
<path fill="white" d="M18.1371 32.1258L13.2627 19.7542H16.5783L18.533 24.9008C18.7475 25.4781 18.9537 26.0967 19.1516 26.7565C19.366 27.3998 19.5228 27.9029 19.6217 28.2659L19.7702 28.8102C20.1331 27.4906 20.5537 26.1874 21.0321 24.9008L22.9621 19.7542H26.2777L21.4032 32.1258H18.1371Z"></path>
</svg>
